<?xml version="1.0" encoding="UTF-8"?>
<svg id="Layer_2" data-name="Layer 2" xmlns="http://www.w3.org/2000/svg" viewBox="0 0 626.29 318.29">
  <defs>
    <style>
      .cls-1 {
        fill: #fff;
      }

      .cls-2 {
        fill: none;
        stroke: #000;
        stroke-miterlimit: 10;
        stroke-width: 5px;
      }
    </style>
  </defs>
  <g id="Drawing">
    <g>
      <path class="cls-2" d="m99.29,55.97c-7.53,8.27-33.39-6.7-7.62-23.72,4.98-3.29,11.4-3.21,16.42.03,12.71,8.21,26.51,7.91,41.21.69l28.24-22.59c1.52-1.22,2.68-2.88,3.09-4.79.51-2.39-.64-3.39-3.42-3.02s-5.36,2.05-7.02,4.4L21.57,218.3c-2.72,3.87-7.37,6.07-12.04,5.34-6.05-.95-8.4-5.89-6.24-15.67,7.67-25.69,25.44-42.4,52.97-50.42,3.51-1.02,7.13-1.61,10.77-1.81,70.95-3.83,128.42-27.12,174.97-62.57,20.31-15.47,37.54-34.65,50.59-56.6.08-.13.16-.26.23-.39,2.34-3.95,3.46-8.57,2.86-13.12-1.26-9.47-8.33-10.94-14.4-8.09l-.05.03c-2.87,1.35-5.51,3.11-7.85,5.25-80.25,73.36-149.62,242.51-128.1,277.72,13,24,42.88,23.51,68,0,25.22-27.84,43-98,43-99,0-.88,24.14-98.33,96.47-134.28,21.95-10.91,47.32-13.36,70.64-5.77,19.72,6.42,37.92,18.17,52.89,32.05,27.5,25.5,31,53,62,53s86-72,86-72"/>
      <g>
        <circle cx="394.79" cy="171.47" r="91"/>
        <polygon class="cls-1" points="394.79 126.16 407.03 159.23 440.09 171.47 407.03 183.71 394.79 216.77 382.55 183.71 349.48 171.47 382.55 159.23 394.79 126.16"/>
      </g>
    </g>
  </g>
</svg>