<?xml version="1.0" encoding="UTF-8"?>
<svg data-bbox="0 -6.041 187.95 269.411" viewBox="0 0 187.95 263.36" xmlns="http://www.w3.org/2000/svg" data-type="ugc">
    <g>
        <path d="M113.67 168.75c-.29 6.15-1.17 16.7-1.46 22.85v1.76H0v-4.39h1.46c5.86 0 9.38-7.03 9.38-19.04V23.44c0-12.01-3.52-19.05-9.38-19.05H0V0h36.62v4.39h-1.76c-5.86 0-9.38 7.03-9.38 19.04v166.41h44.24c16.7-.29 30.18-7.32 36.62-18.75l1.76-3.52s3.9.96 5.57 1.17Z"/>
        <path d="M187.95 263.36h-39.26v-4.39h2.05c6.57 0 8.28-6.15 5.12-16.76l-17.05-48.27h-74.6l-13.81 41.6h.14c-4.98 14.65-3.22 23.44 4.69 23.44h2.34v4.39H26.81v-4.39h1.76c5.86 0 11.72-7.03 15.82-19.04l58.88-174.32h3.52l63.79 174.32h.08c4.1 12.01 9.96 19.04 15.82 19.04h1.46v4.39Zm-87.6-178.33L65.38 190.41h72.19z"/>
        <text transform="scale(-1 1)rotate(.25 -27228.318 -19494.563)" font-family="&quot;Elaris_Regular&quot;,Elaris" font-size="140"><tspan y="0" x="0">‘</tspan></text>
    </g>
</svg>
